<mxfile host="65bd71144e">
    <diagram id="sXNxEbq-t8nQGDKyHSqs" name="Página-1">
        <mxGraphModel dx="816" dy="683" grid="1" gridSize="10" guides="1" tooltips="1" connect="1" arrows="1" fold="1" page="1" pageScale="1" pageWidth="827" pageHeight="1169" math="0" shadow="0">
            <root>
                <mxCell id="0"/>
                <mxCell id="1" parent="0"/>
                <mxCell id="15" value="Consumo de datos: Slider de productos or impulso" style="swimlane;childLayout=stackLayout;resizeParent=1;resizeParentMax=0;horizontal=1;startSize=20;horizontalStack=0;" vertex="1" parent="1">
                    <mxGeometry x="20" y="60" width="820" height="540" as="geometry"/>
                </mxCell>
                <mxCell id="16" value="Cliente" style="swimlane;startSize=20;horizontal=0;" vertex="1" parent="15">
                    <mxGeometry y="20" width="820" height="170" as="geometry"/>
                </mxCell>
                <mxCell id="38" style="edgeStyle=none;html=1;exitX=0.5;exitY=0;exitDx=0;exitDy=0;entryX=0;entryY=0.5;entryDx=0;entryDy=0;" edge="1" parent="16" source="29" target="30">
                    <mxGeometry relative="1" as="geometry"/>
                </mxCell>
                <mxCell id="29" value="" style="ellipse;whiteSpace=wrap;html=1;aspect=fixed;direction=south;" vertex="1" parent="16">
                    <mxGeometry x="30" y="55" width="35" height="35" as="geometry"/>
                </mxCell>
                <mxCell id="30" value="Enviar ID de cluster a endpoint del middleware" style="rounded=1;whiteSpace=wrap;html=1;" vertex="1" parent="16">
                    <mxGeometry x="120" y="50" width="140" height="45" as="geometry"/>
                </mxCell>
                <mxCell id="64" value="Sumar estilos a los datos obtenidos" style="rounded=1;whiteSpace=wrap;html=1;" vertex="1" parent="16">
                    <mxGeometry x="450" y="92.5" width="140" height="45" as="geometry"/>
                </mxCell>
                <mxCell id="66" value="" style="ellipse;shape=doubleEllipse;whiteSpace=wrap;html=1;aspect=fixed;" vertex="1" parent="16">
                    <mxGeometry x="490" y="32.5" width="30" height="30" as="geometry"/>
                </mxCell>
                <mxCell id="67" style="edgeStyle=none;html=1;exitX=0.75;exitY=0;exitDx=0;exitDy=0;entryX=1;entryY=0.5;entryDx=0;entryDy=0;" edge="1" parent="16" source="64" target="66">
                    <mxGeometry relative="1" as="geometry">
                        <mxPoint x="554.4705882352941" y="42.499999999999886" as="targetPoint"/>
                        <Array as="points">
                            <mxPoint x="555" y="47.5"/>
                        </Array>
                    </mxGeometry>
                </mxCell>
                <mxCell id="17" value="Middleware equipo front" style="swimlane;startSize=20;horizontal=0;" vertex="1" parent="15">
                    <mxGeometry y="190" width="820" height="210" as="geometry"/>
                </mxCell>
                <mxCell id="42" style="edgeStyle=none;html=1;exitX=0.5;exitY=1;exitDx=0;exitDy=0;entryX=0.5;entryY=0;entryDx=0;entryDy=0;" edge="1" parent="17" source="39" target="41">
                    <mxGeometry relative="1" as="geometry"/>
                </mxCell>
                <mxCell id="39" value="Evaluar cookies/tokens" style="rounded=1;whiteSpace=wrap;html=1;" vertex="1" parent="17">
                    <mxGeometry x="120" y="30" width="140" height="45" as="geometry"/>
                </mxCell>
                <mxCell id="53" style="edgeStyle=none;html=1;exitX=1;exitY=0.5;exitDx=0;exitDy=0;entryX=0;entryY=0.5;entryDx=0;entryDy=0;" edge="1" parent="17" source="41" target="48">
                    <mxGeometry relative="1" as="geometry"/>
                </mxCell>
                <mxCell id="55" value="Sí" style="edgeLabel;html=1;align=center;verticalAlign=middle;resizable=0;points=[];" vertex="1" connectable="0" parent="53">
                    <mxGeometry x="-0.3565" y="-3" relative="1" as="geometry">
                        <mxPoint as="offset"/>
                    </mxGeometry>
                </mxCell>
                <mxCell id="41" value="¿El cliente cuenta con permiso?" style="rhombus;whiteSpace=wrap;html=1;" vertex="1" parent="17">
                    <mxGeometry x="137.5" y="110" width="105" height="60" as="geometry"/>
                </mxCell>
                <mxCell id="84" style="edgeStyle=none;html=1;exitX=1;exitY=0.5;exitDx=0;exitDy=0;entryX=0;entryY=0.5;entryDx=0;entryDy=0;" edge="1" parent="17" source="48" target="72">
                    <mxGeometry relative="1" as="geometry"/>
                </mxCell>
                <mxCell id="48" value="Enviar error de acceso prohibido" style="rounded=1;whiteSpace=wrap;html=1;" vertex="1" parent="17">
                    <mxGeometry x="300" y="117.5" width="140" height="45" as="geometry"/>
                </mxCell>
                <mxCell id="72" value="¿Existe el cluster?" style="rhombus;whiteSpace=wrap;html=1;" vertex="1" parent="17">
                    <mxGeometry x="500" y="110" width="105" height="60" as="geometry"/>
                </mxCell>
                <mxCell id="85" value="Enviar mensaje de no encontrado" style="rounded=1;whiteSpace=wrap;html=1;" vertex="1" parent="17">
                    <mxGeometry x="680" y="125" width="100" height="30" as="geometry"/>
                </mxCell>
                <mxCell id="86" value="Enviar los items que pertenecen al cluster" style="rounded=1;whiteSpace=wrap;html=1;" vertex="1" parent="17">
                    <mxGeometry x="505" y="30" width="155" height="30" as="geometry"/>
                </mxCell>
                <mxCell id="88" value="" style="ellipse;shape=doubleEllipse;whiteSpace=wrap;html=1;aspect=fixed;" vertex="1" parent="17">
                    <mxGeometry x="715" y="60" width="30" height="30" as="geometry"/>
                </mxCell>
                <mxCell id="18" value="API VTEX" style="swimlane;startSize=20;horizontal=0;" vertex="1" parent="15">
                    <mxGeometry y="400" width="820" height="140" as="geometry"/>
                </mxCell>
                <mxCell id="69" style="edgeStyle=none;html=1;exitX=1;exitY=0.5;exitDx=0;exitDy=0;entryX=0;entryY=0.5;entryDx=0;entryDy=0;" edge="1" parent="18" source="49" target="68">
                    <mxGeometry relative="1" as="geometry"/>
                </mxCell>
                <mxCell id="49" value="Procesar petición" style="rounded=1;whiteSpace=wrap;html=1;" vertex="1" parent="18">
                    <mxGeometry x="120" y="55" width="140" height="30" as="geometry"/>
                </mxCell>
                <mxCell id="68" value="Enviar la respuesta&amp;nbsp;" style="rounded=1;whiteSpace=wrap;html=1;" vertex="1" parent="18">
                    <mxGeometry x="500" y="55" width="140" height="30" as="geometry"/>
                </mxCell>
                <mxCell id="40" style="edgeStyle=none;html=1;exitX=0.5;exitY=1;exitDx=0;exitDy=0;entryX=0.5;entryY=0;entryDx=0;entryDy=0;" edge="1" parent="15" source="30" target="39">
                    <mxGeometry relative="1" as="geometry"/>
                </mxCell>
                <mxCell id="50" style="edgeStyle=none;html=1;exitX=0.5;exitY=1;exitDx=0;exitDy=0;entryX=0.5;entryY=0;entryDx=0;entryDy=0;" edge="1" parent="15" source="41" target="49">
                    <mxGeometry relative="1" as="geometry"/>
                </mxCell>
                <mxCell id="51" value="No" style="edgeLabel;html=1;align=center;verticalAlign=middle;resizable=0;points=[];" vertex="1" connectable="0" parent="50">
                    <mxGeometry x="-0.5" y="1" relative="1" as="geometry">
                        <mxPoint as="offset"/>
                    </mxGeometry>
                </mxCell>
                <mxCell id="92" style="edgeStyle=none;html=1;exitX=0.386;exitY=0.019;exitDx=0;exitDy=0;entryX=0.5;entryY=1;entryDx=0;entryDy=0;exitPerimeter=0;" edge="1" parent="15" source="68" target="72">
                    <mxGeometry relative="1" as="geometry"/>
                </mxCell>
                <mxCell id="76" value="Sí" style="edgeStyle=none;html=1;exitX=0.5;exitY=0;exitDx=0;exitDy=0;" edge="1" parent="1" source="72">
                    <mxGeometry relative="1" as="geometry">
                        <mxPoint x="573" y="320" as="targetPoint"/>
                    </mxGeometry>
                </mxCell>
                <mxCell id="80" value="No" style="edgeStyle=none;html=1;exitX=1;exitY=0.5;exitDx=0;exitDy=0;" edge="1" parent="1" source="72">
                    <mxGeometry relative="1" as="geometry">
                        <mxPoint x="690" y="390" as="targetPoint"/>
                    </mxGeometry>
                </mxCell>
                <mxCell id="87" style="edgeStyle=none;html=1;exitX=0.5;exitY=0;exitDx=0;exitDy=0;" edge="1" parent="1" source="86">
                    <mxGeometry relative="1" as="geometry">
                        <mxPoint x="602.5714285714287" y="219.9999999999999" as="targetPoint"/>
                    </mxGeometry>
                </mxCell>
                <mxCell id="90" style="edgeStyle=none;html=1;exitX=0.5;exitY=0;exitDx=0;exitDy=0;" edge="1" parent="1" source="85">
                    <mxGeometry relative="1" as="geometry">
                        <mxPoint x="749.7142857142858" y="339.9999999999999" as="targetPoint"/>
                    </mxGeometry>
                </mxCell>
            </root>
        </mxGraphModel>
    </diagram>
</mxfile>